<svg width="40" height="26" viewBox="0 0 40 26" fill="none" xmlns="http://www.w3.org/2000/svg">
<path d="M0.75 16.5C0.752198 18.3354 1.33127 20.1237 2.40535 21.612C3.47943 23.1004 4.99417 24.2134 6.73539 24.7938C8.47662 25.3742 10.3562 25.3926 12.1085 24.8464C13.8608 24.3002 15.397 23.217 16.5 21.75H25.5475C25.9095 22.774 26.5803 23.6605 27.4673 24.2874C28.3543 24.9143 29.4139 25.2506 30.5 25.25C32.7925 25.25 34.735 23.7975 35.4525 21.75H39.25V18.25C39.25 8.625 31.375 0.75 21.75 0.75H0.75V16.5ZM35.75 18.25H18.075C18.4284 16.5111 18.2449 14.7059 17.549 13.0736C16.8531 11.4414 15.6775 10.0592 14.1782 9.11021C12.6788 8.16125 10.9265 7.69037 9.15343 7.75998C7.38037 7.82959 5.67034 8.43641 4.25 9.5V4.25H20.875C25.425 4.25 29.485 6.28 32.25 9.5H25.25V13H34.4375C35.1725 14.61 35.61 16.395 35.75 18.25ZM9.5 11.25C12.405 11.25 14.75 13.595 14.75 16.5C14.75 19.405 12.405 21.75 9.5 21.75C6.595 21.75 4.25 19.405 4.25 16.5C4.25 13.595 6.595 11.25 9.5 11.25Z" fill="black"/>
</svg>
